<svg width="64" height="46" viewBox="0 0 64 46" fill="none" xmlns="http://www.w3.org/2000/svg">
<rect width="64" height="45.7143" rx="2" fill="white"/>
<mask id="mask0_5_28" style="mask-type:alpha" maskUnits="userSpaceOnUse" x="0" y="0" width="64" height="46">
<rect width="64" height="45.7143" rx="2" fill="white"/>
</mask>
<g mask="url(#mask0_5_28)">
<rect x="30.4762" width="33.5238" height="45.7143" fill="#1AB11F"/>
<path fill-rule="evenodd" clip-rule="evenodd" d="M0 45.7143H21.3333V0H0V45.7143Z" fill="#262626"/>
<path fill-rule="evenodd" clip-rule="evenodd" d="M21.3333 45.7143H42.6667V0H21.3333V45.7143Z" fill="#DC0D18"/>
<path opacity="0.75" d="M26.5715 21.3333C26.5715 20.9651 26.273 20.6666 25.9048 20.6666C25.5366 20.6666 25.2381 20.9651 25.2381 21.3333H26.5715ZM28.6108 27.1857C28.9293 27.3705 29.3373 27.2621 29.522 26.9437C29.7068 26.6252 29.5985 26.2172 29.28 26.0324L28.6108 27.1857ZM34.9205 25.9103C34.6103 26.1087 34.5197 26.5209 34.718 26.8311C34.9164 27.1413 35.3287 27.2319 35.6389 27.0335L34.9205 25.9103ZM38.7619 21.3333C38.7619 20.9651 38.4634 20.6666 38.0952 20.6666C37.7271 20.6666 37.4286 20.9651 37.4286 21.3333H38.7619ZM25.2381 21.3333C25.2381 23.8338 26.5957 26.0164 28.6108 27.1857L29.28 26.0324C27.6591 25.0919 26.5715 23.3392 26.5715 21.3333H25.2381ZM35.6389 27.0335C37.5155 25.8333 38.7619 23.7291 38.7619 21.3333H37.4286C37.4286 23.2554 36.4301 24.9447 34.9205 25.9103L35.6389 27.0335Z" fill="white"/>
<path fill-rule="evenodd" clip-rule="evenodd" d="M32 24.381C33.6831 24.381 35.0476 22.3343 35.0476 19.8095C35.0476 17.2848 33.6831 15.2381 32 15.2381C30.3168 15.2381 28.9524 17.2848 28.9524 19.8095C28.9524 22.3343 30.3168 24.381 32 24.381Z" fill="white" fill-opacity="0.5"/>
</g>
</svg>
