<svg width="63" height="45" viewBox="0 0 63 45" fill="none" xmlns="http://www.w3.org/2000/svg">
<rect width="63" height="45" rx="2" fill="white"/>
<mask id="mask0_5_131" style="mask-type:alpha" maskUnits="userSpaceOnUse" x="0" y="0" width="63" height="45">
<rect width="63" height="45" rx="2" fill="white"/>
</mask>
<g mask="url(#mask0_5_131)">
<rect width="63" height="45" fill="url(#paint0_linear_5_131)"/>
<rect x="30" width="33" height="45" fill="#08379D"/>
<path fill-rule="evenodd" clip-rule="evenodd" d="M0 45H21V0H0V45Z" fill="#08379D"/>
<path fill-rule="evenodd" clip-rule="evenodd" d="M21 45H42V0H21V45Z" fill="#FFCC50"/>
<path fill-rule="evenodd" clip-rule="evenodd" d="M31.2791 13.9135C31.4129 13.7168 31.7037 13.7195 31.8338 13.9187L34.1631 17.4844C34.308 17.7061 34.1489 18 33.8841 18H32.6183C32.4211 18 32.267 18.1703 32.2866 18.3665L32.97 25.1999C32.987 25.3703 33.1304 25.5 33.3016 25.5H34.363C34.4507 25.5 34.535 25.4654 34.5974 25.4037L35.9011 24.114C35.9644 24.0514 36 23.9661 36 23.877V21.1381C36 21.0497 35.9649 20.9649 35.9024 20.9024L34.8814 19.8814C34.7061 19.7062 34.7766 19.4078 35.0117 19.3295L38.4647 18.1785C38.7053 18.0983 38.9438 18.3055 38.8979 18.555L37.6401 25.3944C37.6274 25.4631 37.5936 25.5261 37.5432 25.5745L34.5968 28.407C34.5347 28.4667 34.4519 28.5 34.3657 28.5H33.3333C33.1492 28.5 33 28.6493 33 28.8334V31.1667C33 31.3508 32.8507 31.5001 32.6667 31.5001H30.3333C30.1492 31.5001 30 31.3508 30 31.1667V28.8334C30 28.6493 29.8507 28.5 29.6667 28.5H28.6381C28.5497 28.5 28.4649 28.4649 28.4024 28.4024L25.5713 25.5714C25.5248 25.5249 25.4931 25.4656 25.4802 25.4011L24.1126 18.5633C24.0624 18.3123 24.3021 18.1007 24.5449 18.1817L27.9883 19.3295C28.2234 19.4078 28.2938 19.7062 28.1186 19.8814L27.0976 20.9024C27.0351 20.9649 27 21.0497 27 21.1381V23.877C27 23.9661 27.0356 24.0514 27.0989 24.114L28.4026 25.4037C28.465 25.4654 28.5492 25.5 28.637 25.5H29.6983C29.8696 25.5 30.013 25.3703 30.03 25.1999L30.7133 18.3665C30.733 18.1703 30.5789 18 30.3817 18H29.1298C28.8622 18 28.7037 17.7005 28.8542 17.4792L31.2791 13.9135Z" fill="#262626"/>
</g>
<defs>
<linearGradient id="paint0_linear_5_131" x1="0" y1="0" x2="0" y2="45" gradientUnits="userSpaceOnUse">
<stop stop-color="#1132C7"/>
<stop offset="1" stop-color="#0522A5"/>
</linearGradient>
</defs>
</svg>
